<svg width="22" height="22" viewBox="0 0 22 22" fill="none"
    xmlns="http://www.w3.org/2000/svg">
    <circle cx="14.75" cy="11" r="0.75" stroke="#ACACAC" stroke-width="1.3"/>
    <path d="M20.75 20.75L20.75 21.4C21.109 21.4 21.4 21.109 21.4 20.75L20.75 20.75ZM1.25 20.75L0.600001 20.75C0.600001 20.9224 0.668483 21.0877 0.790382 21.2096C0.91228 21.3315 1.07761 21.4 1.25 21.4L1.25 20.75ZM1.25 1.25L1.25 0.599999L0.600002 0.599998L0.600002 1.25L1.25 1.25ZM20.75 1.25004L21.4 1.25004L21.4 0.600043L20.75 0.600042L20.75 1.25004ZM0.600002 1.25L0.600001 20.75L1.9 20.75L1.9 1.25L0.600002 1.25ZM20.75 20.1L1.25 20.1L1.25 21.4L20.75 21.4L20.75 20.1ZM20.1 1.25004L20.1 20.75L21.4 20.75L21.4 1.25004L20.1 1.25004ZM20.75 0.600042L1.25 0.599999L1.25 1.9L20.75 1.90004L20.75 0.600042Z" fill="#ACACAC"/>
    <path d="M20.75 14.75L20.75 15.4C21.109 15.4 21.4 15.109 21.4 14.75L20.75 14.75ZM11 14.75L10.35 14.75C10.35 14.9224 10.4185 15.0877 10.5404 15.2096C10.6623 15.3315 10.8276 15.4 11 15.4L11 14.75ZM11 7.25L11 6.6L10.35 6.6L10.35 7.25L11 7.25ZM20.75 7.25002L21.4 7.25002L21.4 6.60002L20.75 6.60002L20.75 7.25002ZM10.35 7.25L10.35 14.75L11.65 14.75L11.65 7.25L10.35 7.25ZM20.75 14.1L11 14.1L11 15.4L20.75 15.4L20.75 14.1ZM20.1 7.25002L20.1 14.75L21.4 14.75L21.4 7.25002L20.1 7.25002ZM20.75 6.60002L11 6.6L11 7.9L20.75 7.90002L20.75 6.60002Z" fill="#ACACAC"/>
</svg>
