<svg width="24" height="24" viewBox="0 0 24 24" fill="none" xmlns="http://www.w3.org/2000/svg">
<path d="M21 16V8C20.9996 7.64928 21 6.84207 21 6.84207C21 6.84207 20.3037 6.44536 20 6.27L13 2.27C12.696 2.09446 11.9985 1.6954 11.9985 1.6954C11.9985 1.6954 11.304 2.09446 11 2.27L3.99999 6.27C3.69625 6.44536 2.99997 6.82835 2.99997 6.82835C2.99997 6.82835 3.00035 7.64928 2.99999 8V16C3.00035 16.3507 2.99999 17.1757 2.99999 17.1757C2.99999 17.1757 3.69625 17.5546 3.99999 17.73L11 21.73C11.304 21.9055 12.0062 22.3531 12.0062 22.3531C12.0062 22.3531 12.696 21.9055 13 21.73L20 17.73C20.3037 17.5546 21 17.1751 21 17.1751C21 17.1751 20.9996 16.3507 21 16Z" stroke="black" stroke-width="1.3"/>
<path d="M3.26999 6.96002L12 12.01L20.73 6.96002" stroke="black" stroke-width="1.3"/>
<path d="M12 22.08V12" stroke="black" stroke-width="1.3"/>
</svg>
