<svg width="76" height="40" viewBox="0 0 76 40" fill="none" xmlns="http://www.w3.org/2000/svg">
<path fill-rule="evenodd" clip-rule="evenodd" d="M48.9029 29.255C47.5194 29.642 45.7177 29.8033 44.1734 29.8033C40.1518 29.8033 37.5137 27.7068 37.5137 23.8686C37.5137 20.2239 39.991 17.8694 43.5943 17.8694C44.3986 17.8694 45.2673 17.9662 45.782 18.2242V12.9346H48.9029V29.255ZM45.782 20.9335C45.2994 20.7077 44.6238 20.5787 43.8516 20.5787C41.9535 20.5787 40.6988 21.7399 40.6988 23.7719C40.6988 25.9328 42.0501 27.1585 44.2699 27.1585C44.656 27.1585 45.2673 27.1585 45.782 27.0295V20.9335ZM74.545 29.255C73.1616 29.642 71.3598 29.8033 69.7834 29.8033C65.7939 29.8033 63.1235 27.7068 63.1235 23.8686C63.1235 20.2239 65.6008 17.8694 69.2042 17.8694C70.0407 17.8694 70.8772 17.9662 71.392 18.2242V12.9346H74.545V29.255ZM71.392 20.9335C70.9094 20.7077 70.2659 20.5787 69.4938 20.5787C67.5634 20.5787 66.3086 21.7399 66.3086 23.7719C66.3086 25.9328 67.6921 27.1585 69.912 27.1585C70.2981 27.1585 70.8772 27.1585 71.392 27.0295V20.9335ZM53.8254 20.9335C54.3401 20.7077 55.0801 20.6432 55.6914 20.6432C57.6218 20.6432 58.9409 21.7399 58.9409 23.7074C58.9409 26.0296 57.461 27.094 55.4984 27.1262V29.8033H55.6593C59.7131 29.8033 62.1261 27.5778 62.1261 23.6106C62.1261 19.9981 59.5522 17.8694 55.7558 17.8694C53.8254 17.8694 51.9272 18.321 50.6724 18.837V34.1576H53.8254V20.9335Z" fill="#3F3F42"/>
<path fill-rule="evenodd" clip-rule="evenodd" d="M25.9961 10.4185L26.5108 10.999L26.8004 10.8378L25.9961 10.4185Z" fill="#DC0032"/>
<path fill-rule="evenodd" clip-rule="evenodd" d="M25.2227 9.99902L26.22 11.1602L26.5739 10.9666L26.1878 10.5151L25.2227 9.99902Z" fill="#DC0032"/>
<path fill-rule="evenodd" clip-rule="evenodd" d="M24.418 9.57959L25.9301 11.3213L26.284 11.1278L25.4153 10.0957L24.418 9.57959Z" fill="#DC0032"/>
<path fill-rule="evenodd" clip-rule="evenodd" d="M23.6465 9.16064L25.6412 11.4829L25.9951 11.2894L24.6117 9.67671L23.6465 9.16064ZM27.4751 13.2569L27.2499 13.3859L27.4751 13.6439V13.2569Z" fill="#DC0032"/>
<path fill-rule="evenodd" clip-rule="evenodd" d="M22.875 8.74121L25.3523 11.6441L25.7063 11.4505L23.8402 9.25727L22.875 8.74121ZM27.3471 13.3212L26.9931 13.547L27.4757 14.1276V13.5148L27.347 13.3212H27.3471Z" fill="#DC0032"/>
<path fill-rule="evenodd" clip-rule="evenodd" d="M22.0703 8.32227L25.0624 11.8057L25.4485 11.6122L23.0677 8.83833L22.0703 8.32227ZM27.0571 13.4829L26.7032 13.7086L27.4754 14.6117V13.9989L27.0571 13.4829Z" fill="#DC0032"/>
<path fill-rule="evenodd" clip-rule="evenodd" d="M21.2988 7.90283L24.8057 11.9668L25.1596 11.7733L22.264 8.41888L21.2988 7.90283ZM26.7683 13.6762L26.4143 13.8698L27.4761 15.1277V14.5148L26.7683 13.6762Z" fill="#DC0032"/>
<path fill-rule="evenodd" clip-rule="evenodd" d="M20.5254 7.4834L24.5149 12.128L24.8688 11.9344L21.4906 7.99946L20.5254 7.4834ZM26.4774 13.8374L26.1235 14.0309L27.4748 15.6113V14.9985L26.4774 13.8374Z" fill="#DC0032"/>
<path fill-rule="evenodd" clip-rule="evenodd" d="M19.7227 7.06396L24.2269 12.2891L24.5808 12.0956L20.72 7.58002L19.7227 7.06396ZM26.1894 13.9985L25.8355 14.192L27.4763 16.095V15.4822L26.1894 13.9985Z" fill="#DC0032"/>
<path fill-rule="evenodd" clip-rule="evenodd" d="M18.9492 6.64502L23.936 12.483L24.29 12.2572L19.9144 7.16108L18.9492 6.64502ZM25.8986 14.1601L25.5447 14.3537L27.4751 16.6114V15.9986L25.8986 14.1601Z" fill="#DC0032"/>
<path fill-rule="evenodd" clip-rule="evenodd" d="M18.1445 6.22559L23.6461 12.6441L24 12.4183L19.1419 6.74165L18.1445 6.22559ZM25.6409 14.3213L25.2548 14.5148L27.4747 17.0951V16.4823L25.6409 14.3213Z" fill="#DC0032"/>
<path fill-rule="evenodd" clip-rule="evenodd" d="M17.373 5.80615L23.3572 12.8052L23.7433 12.5795L18.3704 6.32221L17.373 5.80615ZM25.352 14.4824L24.9981 14.6759L27.4754 17.611V16.966L25.352 14.4824Z" fill="#DC0032"/>
<path fill-rule="evenodd" clip-rule="evenodd" d="M16.6016 5.38672L23.1005 12.9663L23.4544 12.7405L17.5668 5.90278L16.6016 5.38672ZM25.0631 14.6435L24.7092 14.8371L27.4761 18.0947V17.4819L25.0631 14.6435Z" fill="#DC0032"/>
<path fill-rule="evenodd" clip-rule="evenodd" d="M15.7969 4.93555L22.8106 13.128L23.1645 12.9022L16.7942 5.48386L15.7969 4.93555ZM24.7732 14.8052L24.4193 14.9987L27.4757 18.5789V17.9661L24.7732 14.8052Z" fill="#DC0032"/>
<path fill-rule="evenodd" clip-rule="evenodd" d="M15.0254 4.51611L22.5217 13.2891L22.8756 13.0956L16.0228 5.06443L15.0254 4.51611ZM24.4843 14.9663L24.1304 15.1598L27.4764 19.0948V18.4497L24.4843 14.9663Z" fill="#DC0032"/>
<path fill-rule="evenodd" clip-rule="evenodd" d="M14.252 4.12891L22.2309 13.4502L22.5848 13.2567L15.2171 4.64497L14.252 4.12891ZM24.1934 15.1274L23.8395 15.3209L27.4751 19.5784V18.9656L24.1934 15.1274Z" fill="#DC0032"/>
<path fill-rule="evenodd" clip-rule="evenodd" d="M13.7383 4L21.9424 13.6116L22.2963 13.4181L14.4461 4.22578L14.2531 4.12902C14.0922 4.03225 13.9313 4 13.7383 4ZM23.905 15.2888L23.5511 15.4823L27.4762 20.0623V19.4495L23.905 15.2888Z" fill="#DC0032"/>
<path fill-rule="evenodd" clip-rule="evenodd" d="M13.7376 4C13.6089 4 13.4803 4.03225 13.3516 4.06451L21.6522 13.7729L22.0383 13.5793L13.8342 4C13.802 4 13.7698 4 13.7376 4ZM23.6469 15.4501L23.293 15.6436L27.4755 20.5784V19.9333L23.6469 15.4501Z" fill="#DC0032"/>
<path fill-rule="evenodd" clip-rule="evenodd" d="M13.4486 4.03223C13.3842 4.06448 13.2877 4.09673 13.2555 4.12899L13.0625 4.22575L21.3953 13.9341L21.7492 13.7406L13.4486 4.03223ZM23.3579 15.6113L23.004 15.8371L27.476 21.0622V20.4494L23.3579 15.6113Z" fill="#DC0032"/>
<path fill-rule="evenodd" clip-rule="evenodd" d="M13.1254 4.16113L12.7715 4.35466L21.1043 14.0953L21.4582 13.9017L13.1254 4.16113ZM23.0669 15.7725L22.713 15.9983L27.4746 21.5459V20.9331L23.0669 15.7725Z" fill="#DC0032"/>
<path fill-rule="evenodd" clip-rule="evenodd" d="M12.8363 4.32227L12.4824 4.51579L20.8152 14.2564L21.1691 14.0629L12.8363 4.32227ZM22.7778 15.9336L22.4239 16.1594L27.4751 22.0618V21.449L22.7778 15.9336Z" fill="#DC0032"/>
<path fill-rule="evenodd" clip-rule="evenodd" d="M12.5473 4.48389L12.1934 4.67741L20.5262 14.418L20.8801 14.2245L12.5473 4.48389ZM22.4887 16.0952L22.1348 16.321L27.4756 22.546V21.9332L22.4887 16.0952Z" fill="#DC0032"/>
<path fill-rule="evenodd" clip-rule="evenodd" d="M12.2582 4.64502L11.9043 4.83854L20.2371 14.5792L20.591 14.3856L12.2582 4.64502ZM22.1997 16.2564L21.8458 16.4821L27.4761 23.0297V22.4168L22.1997 16.2564Z" fill="#DC0032"/>
<path fill-rule="evenodd" clip-rule="evenodd" d="M11.9672 4.80664L11.6133 5.00016L19.9461 14.7408L20.3 14.5473L11.9672 4.80664ZM21.9408 16.418L21.5869 16.6438L27.4746 23.5461V22.9332L21.9408 16.418Z" fill="#DC0032"/>
<path fill-rule="evenodd" clip-rule="evenodd" d="M11.6801 4.93555L11.3262 5.16132L19.6912 14.9019L20.0451 14.7084L11.6801 4.93555ZM21.6537 16.6114L21.2998 16.8049L27.4771 24.0298V23.417L21.6537 16.6114Z" fill="#DC0032"/>
<path fill-rule="evenodd" clip-rule="evenodd" d="M11.3891 5.09668L11.0352 5.2902L19.4002 15.0631L19.7541 14.8696L11.3891 5.09668ZM21.3627 16.7725L21.0088 16.9661L27.4756 24.5457V23.9006L21.3627 16.7725Z" fill="#DC0032"/>
<path fill-rule="evenodd" clip-rule="evenodd" d="M11.1 5.25781L10.7461 5.45134L19.1111 15.2565L19.465 15.0307L11.1 5.25781ZM21.0736 16.9337L20.7197 17.1272L27.4761 25.0293V24.4165L21.0736 16.9337Z" fill="#DC0032"/>
<path fill-rule="evenodd" clip-rule="evenodd" d="M10.8109 5.41895L10.457 5.61246L18.8221 15.4176L19.176 15.1918L10.8109 5.41895ZM20.7846 17.0948L20.4307 17.2883L27.4766 25.513V24.9002L20.7846 17.0948Z" fill="#DC0032"/>
<path fill-rule="evenodd" clip-rule="evenodd" d="M10.5219 5.58057L10.168 5.77409L18.533 15.5792L18.8869 15.3534L10.5219 5.58057ZM20.4955 17.2564L20.1417 17.45L27.4771 26.0294V25.3843L20.4955 17.2564Z" fill="#DC0032"/>
<path fill-rule="evenodd" clip-rule="evenodd" d="M10.2309 5.7417L9.87695 5.93522L18.242 15.7404L18.5959 15.5146L10.2309 5.7417ZM20.2367 17.4176L19.8828 17.6111L27.4756 26.5131V25.9003L20.2367 17.4176Z" fill="#DC0032"/>
<path fill-rule="evenodd" clip-rule="evenodd" d="M9.94272 5.87061L9.55664 6.06413L17.986 15.9015L18.3399 15.6757L9.94272 5.87061ZM19.9486 17.5787L19.5947 17.7722L27.4771 26.9968V26.384L19.9486 17.5787Z" fill="#DC0032"/>
<path fill-rule="evenodd" clip-rule="evenodd" d="M9.65171 6.03174L9.26562 6.22526L17.7272 16.0949C17.7593 16.0304 17.7915 15.9981 17.8559 15.9659L18.0489 15.8369L9.65171 6.03174L9.65171 6.03174ZM19.6576 17.7399L19.3037 17.9334L27.4113 27.416C27.4434 27.3192 27.4756 27.2224 27.4756 27.1257V26.8676L19.6576 17.7399H19.6576Z" fill="#DC0032"/>
<path fill-rule="evenodd" clip-rule="evenodd" d="M9.36264 6.19336L8.97656 6.38688L17.6311 16.4823V16.3533C17.6311 16.2565 17.6955 16.1275 17.7598 16.0308L9.36264 6.19336ZM19.3685 17.9015L19.1111 18.0628C19.0789 18.0628 19.0468 18.095 19.0146 18.095L27.2509 27.7389C27.3474 27.6098 27.4118 27.4808 27.4439 27.3518L19.3685 17.9015Z" fill="#DC0032"/>
<path fill-rule="evenodd" clip-rule="evenodd" d="M9.07354 6.35449L8.6875 6.54802L17.6316 16.9982V16.3532L9.07354 6.35449ZM18.4681 17.9336L27.0261 27.9645C27.1226 27.9 27.2192 27.771 27.3157 27.6742L19.0794 18.0626C18.9507 18.1271 18.7577 18.1271 18.629 18.0626L18.4681 17.9336Z" fill="#DC0032"/>
<path fill-rule="evenodd" clip-rule="evenodd" d="M8.78447 6.51562L8.39844 6.70914L26.7371 28.1256L26.9945 27.9966C27.0266 27.9643 27.0588 27.9321 27.091 27.8998L18.6616 18.0625H18.6295L17.8895 17.6109C17.8251 17.5787 17.793 17.5142 17.7286 17.4497C17.6643 17.3529 17.6643 17.2884 17.6321 17.2239V16.8691L8.78447 6.51562Z" fill="#DC0032"/>
<path fill-rule="evenodd" clip-rule="evenodd" d="M8.4935 6.67725L8.10742 6.87077L26.4461 28.2873L26.8 28.0937L8.4935 6.67725Z" fill="#DC0032"/>
<path fill-rule="evenodd" clip-rule="evenodd" d="M8.20444 6.80615L7.81836 6.99968L26.1892 28.4484L26.5431 28.2549L8.20444 6.80615Z" fill="#DC0032"/>
<path fill-rule="evenodd" clip-rule="evenodd" d="M7.91538 6.96729L7.5293 7.16081L25.9001 28.6096L26.254 28.416L7.91538 6.96729Z" fill="#DC0032"/>
<path fill-rule="evenodd" clip-rule="evenodd" d="M7.62436 7.12842L7.23828 7.32194L25.6091 28.7707L25.963 28.5772L7.62436 7.12842Z" fill="#DC0032"/>
<path fill-rule="evenodd" clip-rule="evenodd" d="M7.30313 7.29004L6.94922 7.48356L25.3201 28.9646L25.674 28.7388L7.30313 7.29004Z" fill="#DC0032"/>
<path fill-rule="evenodd" clip-rule="evenodd" d="M7.01406 7.45117L6.66016 7.6447L25.031 29.1257L25.3849 28.8999L7.01406 7.45117Z" fill="#DC0032"/>
<path fill-rule="evenodd" clip-rule="evenodd" d="M6.725 7.6123L6.37109 7.80582L24.7741 29.2868L25.128 29.061L6.725 7.6123Z" fill="#DC0032"/>
<path fill-rule="evenodd" clip-rule="evenodd" d="M6.43398 7.74121L6.08008 7.93473L24.4831 29.448L24.837 29.2222L6.43398 7.74121Z" fill="#DC0032"/>
<path fill-rule="evenodd" clip-rule="evenodd" d="M6.14492 7.90283L5.79102 8.09636L24.194 29.6096L24.5479 29.4161L6.14492 7.90283Z" fill="#DC0032"/>
<path fill-rule="evenodd" clip-rule="evenodd" d="M5.85586 8.06396L5.50195 8.25749L14.4461 18.7077L14.7356 18.9012C14.8643 18.9657 14.993 19.127 14.993 19.2882V19.3205L23.905 29.7708L24.2589 29.5772L5.85586 8.06396Z" fill="#DC0032"/>
<path fill-rule="evenodd" clip-rule="evenodd" d="M5.5668 8.2251L5.21289 8.41861L13.6101 18.256L14.6718 18.8366L5.5668 8.2251ZM14.9613 19.1913C14.9613 19.2236 14.9935 19.2559 14.9935 19.2881V19.8364L23.6159 29.9319L23.9698 29.7384L14.9613 19.1913Z" fill="#DC0032"/>
<path fill-rule="evenodd" clip-rule="evenodd" d="M5.27578 8.38623L4.92188 8.57975L12.7721 17.7721L13.8338 18.3527L5.27578 8.38623ZM14.992 19.7073V20.3201L23.3571 30.093L23.711 29.8995L14.992 19.7073Z" fill="#DC0032"/>
<path fill-rule="evenodd" clip-rule="evenodd" d="M4.98672 8.54785L4.63281 8.74138L11.9683 17.2886L12.9978 17.8692L4.98672 8.54785ZM14.9925 20.1914V20.8365L23.068 30.2546L23.4219 30.0611L14.9925 20.1914Z" fill="#DC0032"/>
<path fill-rule="evenodd" clip-rule="evenodd" d="M4.69766 8.67676L4.34375 8.87028L11.1323 16.8047L12.1618 17.4175L4.69766 8.67676ZM14.993 20.7074V21.3202L22.7789 30.4158L23.1328 30.2222L14.993 20.7074Z" fill="#DC0032"/>
<path fill-rule="evenodd" clip-rule="evenodd" d="M4.40663 8.83789L4.05273 9.03141L10.2943 16.3208L11.3239 16.9336L4.40663 8.83789ZM14.9916 21.1911V21.8039L22.4879 30.5769L22.8418 30.3834L14.9916 21.1911Z" fill="#DC0032"/>
<path fill-rule="evenodd" clip-rule="evenodd" d="M4.11757 8.99951L3.76367 9.19304L9.45829 15.8696L10.4878 16.4501L4.11757 8.99951ZM14.9921 21.6752V22.3203L22.1988 30.7708L22.5528 30.545L14.9921 21.6752Z" fill="#DC0032"/>
<path fill-rule="evenodd" clip-rule="evenodd" d="M3.82851 9.16064L3.47461 9.35417L8.62233 15.3856L9.65183 15.9662L3.82851 9.16064ZM14.9926 22.1912V22.804L21.942 30.9319L22.2959 30.7061L14.9926 22.1912Z" fill="#DC0032"/>
<path fill-rule="evenodd" clip-rule="evenodd" d="M3.53945 9.32178L3.18555 9.5153L7.78631 14.9017L8.84799 15.4822L3.53945 9.32178ZM14.9931 22.6748V23.2877L21.6529 31.093L22.0068 30.8673L14.9931 22.6748Z" fill="#DC0032"/>
<path fill-rule="evenodd" clip-rule="evenodd" d="M3.24843 9.48291L2.89453 9.67643L6.94835 14.4177L8.01007 15.0305L3.24843 9.48291ZM11.6778 19.9331L12.5143 20.9007V20.5459C12.5143 20.4814 12.4499 20.3847 12.3856 20.3524L11.6778 19.9331ZM14.9916 23.1585V23.8036L21.3619 31.2542L21.7158 31.0284L14.9916 23.1585Z" fill="#DB0032"/>
<path fill-rule="evenodd" clip-rule="evenodd" d="M2.95937 9.6123L2.60547 9.80583L6.11234 13.9343L7.17406 14.5471L2.95937 9.6123ZM10.8418 19.4497L12.5148 21.3849V20.7721L11.9035 20.0625L10.8418 19.4497ZM14.9921 23.6749V24.2878L21.0728 31.4158L21.4267 31.2223L14.9921 23.6749Z" fill="#DC0032"/>
<path fill-rule="evenodd" clip-rule="evenodd" d="M2.67031 9.77344L2.31641 9.96696L5.3085 13.4826L6.33805 14.0632L2.67031 9.77344ZM10.0058 18.998L12.5153 21.9008V21.288L11.0675 19.5786L10.0058 18.998ZM14.9926 24.1586V24.7714L20.7837 31.5769L21.1377 31.3834L14.9926 24.1586Z" fill="#DC0032"/>
<path fill-rule="evenodd" clip-rule="evenodd" d="M2.38125 9.93457L2.02734 10.1281L4.47249 12.9987L5.50203 13.5792L2.38125 9.93457ZM9.20193 18.5141L12.5158 22.3845V21.7717L10.2315 19.0946L9.20193 18.5141ZM14.9931 24.6745V25.2873L20.5269 31.7381L20.8808 31.5446L14.9931 24.6745Z" fill="#DC0032"/>
<path fill-rule="evenodd" clip-rule="evenodd" d="M2.09023 10.0962L1.73633 10.2897L3.63454 12.5152L4.66407 13.0958L2.09023 10.0962ZM8.36401 18.0306L12.5143 22.8687V22.2559L9.39351 18.6434L8.36401 18.0306ZM14.9916 25.1587V25.7715L20.2359 31.8997L20.5897 31.7062L14.9916 25.1587Z" fill="#DC0032"/>
<path fill-rule="evenodd" clip-rule="evenodd" d="M1.80117 10.2573L1.44727 10.4508L2.79853 12.0313L3.82807 12.6441L1.80117 10.2573ZM7.52799 17.5467L12.5148 23.3846V22.7718L8.55754 18.1595L7.52799 17.5467ZM14.9921 25.6423V26.2552L19.9468 32.0608L20.3007 31.8673L14.9921 25.6423Z" fill="#DC0032"/>
<path fill-rule="evenodd" clip-rule="evenodd" d="M1.51211 10.4185L1.1582 10.612L1.96253 11.5473L3.02424 12.1602L1.51211 10.4185ZM6.69198 17.095L12.5153 23.8683V23.2555L7.72153 17.6756L6.69198 17.095ZM14.9926 26.1583V26.7711L19.6577 32.222L20.0117 32.0284L14.9926 26.1583Z" fill="#DC0032"/>
<path fill-rule="evenodd" clip-rule="evenodd" d="M1.22201 10.5474L0.835938 10.7409L1.12549 11.0957L2.1872 11.6763L1.22201 10.5474ZM5.85494 16.6111L12.5148 24.3842V23.7392L6.91666 17.1916L5.85494 16.6111ZM14.9921 26.642V27.2548L19.3677 32.4154L19.7216 32.1896L14.9921 26.642Z" fill="#DC0032"/>
<path fill-rule="evenodd" clip-rule="evenodd" d="M0.93224 10.709L0.707031 10.838L1.35049 11.1928L0.93224 10.709V10.709ZM5.01822 16.1276L12.5146 24.8683V24.2556L6.07994 16.7404L5.01822 16.1276ZM14.9919 27.1261V27.7712L19.1101 32.577L19.464 32.3512L14.9919 27.1261Z" fill="#DC0032"/>
<path fill-rule="evenodd" clip-rule="evenodd" d="M4.21484 15.6436L12.5155 25.3519V24.7391L5.24438 16.2564L4.21484 15.6436ZM14.9928 27.6419V28.2548L18.8214 32.738L19.1753 32.5122L14.9928 27.6419Z" fill="#DC0032"/>
<path fill-rule="evenodd" clip-rule="evenodd" d="M3.37891 15.1919L12.5161 25.8679V25.2228L4.40844 15.7725L3.37891 15.1919ZM14.9934 28.1256V28.7385L18.5324 32.8992L18.8864 32.6734L14.9934 28.1256Z" fill="#DC0032"/>
<path fill-rule="evenodd" clip-rule="evenodd" d="M2.54102 14.7085L12.5147 26.3521V25.7393L3.57055 15.2891L2.54102 14.7085ZM14.992 28.6099V29.2549L18.2415 33.0609L18.5954 32.8674L14.992 28.6099Z" fill="#DC0032"/>
<path fill-rule="evenodd" clip-rule="evenodd" d="M1.70508 14.2246L12.5152 26.8358V26.223L2.73462 14.8374L1.70508 14.2246ZM14.9925 29.1259V29.7387L17.9525 33.2221L18.3064 33.0285L14.9925 29.1259Z" fill="#DB0032"/>
<path fill-rule="evenodd" clip-rule="evenodd" d="M0.869141 13.7407L12.5158 27.3518V26.739L1.89868 14.3535L0.869141 13.7407ZM14.9931 29.6096V30.2224L17.6957 33.3833L18.0496 33.1897L14.9931 29.6096Z" fill="#DA0032"/>
<path fill-rule="evenodd" clip-rule="evenodd" d="M0.0332031 13.2891L12.5164 27.8355V27.2227L1.09491 13.8696L0.0332031 13.2891ZM14.9937 30.0933V30.7383L17.4067 33.5444L17.7606 33.3509L14.9937 30.0933Z" fill="#D90032"/>
<path fill-rule="evenodd" clip-rule="evenodd" d="M0 13.2568V13.7084L12.5153 28.3194V27.7065L0.257385 13.3859L0 13.2568ZM14.9926 30.6093V30.9964C14.9926 31.0609 14.9605 31.1254 14.9283 31.1577L17.1161 33.7057L17.47 33.5122L14.9926 30.6093Z" fill="#D80032"/>
<path fill-rule="evenodd" clip-rule="evenodd" d="M0 13.5796V14.2247L12.5153 28.8356V28.2228L0 13.5796ZM14.9605 31.0934C14.9283 31.2224 14.8318 31.3514 14.7353 31.3837L14.7031 31.4159L16.8265 33.8672L17.1804 33.6737L14.9605 31.0934L14.9605 31.0934Z" fill="#D70032"/>
<path fill-rule="evenodd" clip-rule="evenodd" d="M0 14.0952V14.708L12.5153 29.319V28.7062L0 14.0952ZM14.7674 31.351C14.7674 31.3832 14.7674 31.3832 14.7353 31.3832L14.4136 31.5767L16.537 34.028L16.8909 33.8345L14.7674 31.351L14.7674 31.351Z" fill="#D60032"/>
<path fill-rule="evenodd" clip-rule="evenodd" d="M0 14.5791V15.1919L12.5153 29.8029V29.1901L0 14.5791ZM14.51 31.5123L14.124 31.7381L16.2796 34.2216L16.6335 33.9959L14.51 31.5123Z" fill="#D50032"/>
<path fill-rule="evenodd" clip-rule="evenodd" d="M0 15.0952V15.708L12.5153 30.319V29.7062L0 15.0952ZM14.2205 31.6736L13.9953 31.8026C13.931 31.8349 13.8666 31.8349 13.8023 31.8349L15.99 34.383L16.3439 34.1572L14.2205 31.6736V31.6736Z" fill="#D40032"/>
<path fill-rule="evenodd" clip-rule="evenodd" d="M0 15.5791V16.1919L12.5153 30.8028V30.19L0 15.5791ZM13.2232 31.6737L15.7005 34.5443L16.0544 34.3185L13.8988 31.835C13.8666 31.835 13.8023 31.8672 13.7701 31.8672H13.7379C13.6414 31.8672 13.5771 31.835 13.5127 31.8027L13.2232 31.6737L13.2232 31.6737Z" fill="#D30032"/>
<path fill-rule="evenodd" clip-rule="evenodd" d="M0 16.063V16.7081L15.4109 34.7057L15.7648 34.4799L13.4484 31.7705L12.7406 31.3835C12.6119 31.319 12.5153 31.1577 12.5153 30.9964V30.6739L0 16.063Z" fill="#D20032"/>
<path fill-rule="evenodd" clip-rule="evenodd" d="M0 16.5791V17.1919L15.1213 34.867L15.4752 34.6734L0 16.5791Z" fill="#D10032"/>
<path fill-rule="evenodd" clip-rule="evenodd" d="M0 17.0625V17.6753L14.8318 35.0278L15.1857 34.8343L0 17.0625Z" fill="#D00032"/>
<path fill-rule="evenodd" clip-rule="evenodd" d="M0 17.5469V18.192L14.5744 35.1897L14.9283 34.9961L0 17.5469Z" fill="#CF0032"/>
<path fill-rule="evenodd" clip-rule="evenodd" d="M0 18.0625V18.6753L14.2849 35.3505L14.6387 35.157L0 18.0625Z" fill="#CE0032"/>
<path fill-rule="evenodd" clip-rule="evenodd" d="M0 18.5464V19.1592L13.9631 35.4796C14.0597 35.4474 14.1562 35.4151 14.2527 35.3829L14.3492 35.3184L0 18.5464Z" fill="#CD0032"/>
<path fill-rule="evenodd" clip-rule="evenodd" d="M0 19.0303V19.6754L13.5449 35.4797C13.6092 35.4797 13.6736 35.4797 13.7379 35.4797C13.8344 35.4797 13.931 35.4797 14.0275 35.4475L0 19.0303Z" fill="#CC0032"/>
<path fill-rule="evenodd" clip-rule="evenodd" d="M0 19.5464V20.1592L12.8049 35.125L13.2553 35.383C13.3518 35.4475 13.5127 35.4798 13.6414 35.4798L0 19.5464Z" fill="#CB0032"/>
<path fill-rule="evenodd" clip-rule="evenodd" d="M0 20.0298V20.6426L11.9684 34.6407L13.0301 35.2536L0 20.0298Z" fill="#CA0032"/>
<path fill-rule="evenodd" clip-rule="evenodd" d="M0 20.5464V21.1592L11.1319 34.1575L12.1936 34.7703L0 20.5464Z" fill="#C90032"/>
<path fill-rule="evenodd" clip-rule="evenodd" d="M0 21.0298V21.6426L10.2954 33.6733L11.3249 34.2861L0 21.0298Z" fill="#C80033"/>
<path fill-rule="evenodd" clip-rule="evenodd" d="M0 21.5137V22.1265L9.45887 33.1895L10.4884 33.8023L0 21.5137Z" fill="#C70033"/>
<path fill-rule="evenodd" clip-rule="evenodd" d="M0 22.0298V22.6426L8.59024 32.6735L9.65191 33.2863L0 22.0298Z" fill="#C60033"/>
<path fill-rule="evenodd" clip-rule="evenodd" d="M0 22.5137V23.1265L7.75373 32.1898L8.81541 32.8026L0 22.5137Z" fill="#C50033"/>
<path fill-rule="evenodd" clip-rule="evenodd" d="M0 22.9976V23.6104L6.91722 31.706L7.97894 32.3189L0 22.9976Z" fill="#C40033"/>
<path fill-rule="evenodd" clip-rule="evenodd" d="M0 23.5137V24.1265L6.08072 31.2223L7.14244 31.8351L0 23.5137Z" fill="#C30033"/>
<path fill-rule="evenodd" clip-rule="evenodd" d="M0 23.9971V24.6099L5.24421 30.7381L6.30593 31.3509L0 23.9971Z" fill="#C20033"/>
<path fill-rule="evenodd" clip-rule="evenodd" d="M0 24.481V25.126L4.4077 30.2544L5.43725 30.8672L0 24.481Z" fill="#C10033"/>
<path fill-rule="evenodd" clip-rule="evenodd" d="M0 24.9971V25.6099L3.53904 29.7707L4.60074 30.3834L0 24.9971Z" fill="#C00033"/>
<path fill-rule="evenodd" clip-rule="evenodd" d="M0 25.481V26.0938L2.70254 29.2869L3.76425 29.8675L0 25.481Z" fill="#BF0033"/>
<path fill-rule="evenodd" clip-rule="evenodd" d="M0 25.9648V26.6099L1.86604 28.7709L2.92775 29.3838L0 25.9648Z" fill="#BE0033"/>
<path fill-rule="evenodd" clip-rule="evenodd" d="M0 26.481V27.0938L1.02954 28.2872L2.09125 28.9L0 26.481Z" fill="#BD0033"/>
<path fill-rule="evenodd" clip-rule="evenodd" d="M0 26.9644V27.1256C0 27.4482 0.225212 27.8352 0.482596 27.9965L1.25475 28.4158L0 26.9644Z" fill="#BC0033"/>
<path fill-rule="evenodd" clip-rule="evenodd" d="M0.193359 27.7065C0.257706 27.771 0.289878 27.8356 0.354225 27.8678L0.193359 27.7065Z" fill="#BB0033"/>
</svg>
