<svg width="76" height="40" viewBox="0 0 76 40" fill="none" xmlns="http://www.w3.org/2000/svg">
<path fill-rule="evenodd" clip-rule="evenodd" d="M7.28619 27.3084C4.02007 27.3084 2.53357 28.1961 1.94735 30.0542L0.0839844 35.9587H63.5639C66.83 35.9587 68.3165 35.071 68.9027 33.2129L70.7661 27.3084H7.28619ZM14.9281 19.071H11.7876C6.88839 19.071 10.4476 8.81032 14.5721 8.81032H19.5341C20.3297 8.81032 21.7325 8.95484 22.4234 7.01419L23.4911 4H16.6867C13.0019 4 10.1336 5.28 8.06084 7.4271C4.48068 11.1019 3.26635 16.8413 4.12476 19.5871C4.94129 22.1265 7.16057 23.7987 10.6361 23.84L13.3369 23.8606H16.6658L17.4823 21.4452C18.0895 19.7316 16.7286 19.071 14.9281 19.071ZM53.1584 14.8181L54.1843 11.5355H43.2344C41.4129 11.5355 40.5964 12.031 40.2823 13.0632L39.2564 16.3458H50.2063C52.0278 16.3458 52.8443 15.8503 53.1584 14.8181ZM37.6234 20.5987L36.5975 23.8813H47.5473C49.3479 23.8813 50.1854 23.3858 50.4994 22.3535L51.5253 19.071H40.5754C38.7749 19.071 37.9584 19.5665 37.6234 20.5987ZM55.7126 7.30323L56.7385 4.02064H45.7887C43.9672 4.02064 43.1507 4.51613 42.8366 5.54839L41.8107 8.83097H52.7606C54.5611 8.83097 55.3777 8.33549 55.7126 7.30323ZM39.1727 7.96387C38.7121 4.90839 37.0581 4.02064 33.0383 4.02064H25.7104L21.4394 16.3458H24.1402C25.7523 16.3458 26.5688 16.3665 27.4272 14.0955L29.2069 8.81032H31.9286C34.2526 8.81032 33.7292 11.68 32.5567 14.4671C31.5099 16.9239 29.6884 19.0916 27.49 19.0916H22.9468C21.1253 19.0916 20.2878 19.5871 19.9529 20.6194L18.8223 23.9019H22.1512L25.4173 23.8813C28.3066 23.8606 30.6724 23.6542 33.4361 21.1974C36.3672 18.5755 39.7589 11.8452 39.1727 7.96387ZM75.9793 4H69.6355L63.6686 10.2555C62.9777 10.9781 62.2658 11.7006 61.5749 12.5471H61.5121L64.4851 4H59.3137L52.3418 23.8813H57.5132L59.7325 17.6258L62.0355 15.7058L63.857 21.3626C64.4223 23.1174 65.0085 23.8813 66.2647 23.8813H70.2217L66.16 12.7742L75.9793 4Z" fill="#00B33C"/>
<path d="M6.99152 32.2223V33.8532H6.07031V29.332H7.8918C8.41522 29.332 8.83395 29.4558 9.12706 29.7242C9.42017 29.9926 9.58767 30.3436 9.58767 30.7771C9.58767 31.2107 9.44111 31.5616 9.12706 31.83C8.83395 32.0984 8.41522 32.2223 7.8918 32.2223H6.99152ZM6.99152 31.5203H7.8918C8.14304 31.5203 8.33147 31.4584 8.47803 31.3139C8.60365 31.1694 8.66646 31.0042 8.66646 30.7978C8.66646 30.5707 8.60365 30.4055 8.47803 30.261C8.35241 30.1165 8.14304 30.0545 7.8918 30.0545H6.99152V31.5203ZM12.2047 32.8829H10.5926L10.2786 33.8532H9.35736L10.9276 29.332H11.8698L13.44 33.8532H12.5188L12.2047 32.8829ZM10.8229 32.1603H11.9744L11.4092 30.3849H11.3882L10.8229 32.1603ZM16.8108 30.0339H14.78V30.9216H15.5755C16.099 30.9216 16.5177 31.0661 16.8317 31.3345C17.1458 31.6029 17.2923 31.9539 17.2923 32.3874C17.2923 32.821 17.1458 33.172 16.8317 33.4403C16.5177 33.7087 16.099 33.8532 15.5755 33.8532H13.8169V29.332H16.8108V30.0339ZM14.78 31.6236V33.1513H15.5755C15.8268 33.1513 16.0362 33.0687 16.1618 32.9242C16.2874 32.7797 16.3711 32.5939 16.3711 32.3668C16.3711 32.1603 16.3083 31.9745 16.1618 31.83C16.0152 31.6855 15.8268 31.6029 15.5755 31.6029H14.78V31.6236ZM21.6053 31.9952C21.6053 32.5526 21.4378 33.0068 21.0819 33.3784C20.726 33.75 20.2654 33.9152 19.7001 33.9152C19.1348 33.9152 18.6742 33.7294 18.3182 33.3784C17.9623 33.0274 17.7948 32.5526 17.7948 31.9952V31.19C17.7948 30.6326 17.9623 30.1784 18.3182 29.8068C18.6742 29.4352 19.1348 29.27 19.7001 29.27C20.2654 29.27 20.726 29.4558 21.0819 29.8068C21.4378 30.1578 21.6262 30.6326 21.6262 31.19V31.9952H21.6053ZM20.6841 31.19C20.6841 30.8391 20.6003 30.55 20.4119 30.3229C20.2235 30.0958 19.9932 29.9926 19.6791 29.9926C19.3651 29.9926 19.1138 30.0958 18.9463 30.3229C18.7789 30.55 18.6951 30.8391 18.6951 31.19V32.0158C18.6951 32.3668 18.7789 32.6765 18.9463 32.8829C19.1138 33.11 19.3651 33.2132 19.6791 33.2132C19.9932 33.2132 20.2444 33.11 20.4119 32.8829C20.5794 32.6558 20.6841 32.3668 20.6841 32.0158V31.19ZM25.3739 30.0339H24.0758V33.8532H23.1546V30.0339H21.8565V29.332H25.353V30.0339H25.3739ZM28.0328 32.8829H26.4207L26.1067 33.8532H25.1855L26.7557 29.332H27.6979L29.2681 33.8532H28.3469L28.0328 32.8829ZM26.651 32.1603H27.8025L27.2373 30.3849H27.2163L26.651 32.1603ZM32.5342 31.8713H30.629V33.1513H32.8483V33.8532H29.7078V29.332H32.8483V30.0339H30.629V31.1694H32.5342V31.8713ZM34.6069 29.332L35.7794 32.6558H35.8003L36.9728 29.332H38.1662V33.8532H37.245V32.5113L37.3287 30.5087H37.3078L36.0725 33.8532H35.4653L34.251 30.5294H34.2301L34.3138 32.5113V33.8532H33.3926V29.332H34.6069ZM40.6367 33.8532V29.332H42.186C42.7304 29.332 43.1491 29.4352 43.4422 29.6416C43.7353 29.8481 43.9028 30.1578 43.9028 30.5707C43.9028 30.7771 43.84 30.9629 43.7353 31.1281C43.6306 31.2932 43.4631 31.4171 43.2538 31.4997C43.526 31.5616 43.7353 31.6855 43.8819 31.8713C44.0284 32.0571 44.0912 32.2842 44.0912 32.532C44.0912 32.9655 43.9447 33.2958 43.6516 33.5229C43.3585 33.75 42.9607 33.8532 42.4163 33.8532H40.6367ZM41.5579 31.2313H42.2279C42.4791 31.2313 42.6676 31.19 42.7932 31.0868C42.9188 30.9836 42.9816 30.8391 42.9816 30.6532C42.9816 30.4468 42.9188 30.2816 42.7722 30.1991C42.6466 30.0958 42.4373 30.0545 42.186 30.0545H41.5579V31.2313ZM41.5579 31.8507V33.1513H42.3954C42.6466 33.1513 42.8141 33.0894 42.9607 32.9861C43.1072 32.8829 43.1491 32.7178 43.1491 32.532C43.1491 32.3049 43.0863 32.1397 42.9816 32.0158C42.8769 31.892 42.7094 31.8507 42.4582 31.8507H41.5579ZM48.2367 32.3049C48.2576 32.8003 48.1111 33.1926 47.797 33.4816C47.483 33.7707 47.0642 33.9152 46.499 33.9152C45.9546 33.9152 45.494 33.75 45.159 33.3991C44.824 33.0481 44.6356 32.5939 44.6356 32.0571V31.1694C44.6356 30.612 44.8031 30.1784 45.1381 29.8274C45.4731 29.4765 45.9127 29.2907 46.4571 29.2907C47.0224 29.2907 47.462 29.4352 47.7761 29.7242C48.0901 30.0132 48.2576 30.4055 48.2367 30.901V30.9216H47.3364C47.3364 30.6326 47.2736 30.4055 47.1271 30.2403C46.9805 30.0752 46.7502 30.0132 46.4571 30.0132C46.1849 30.0132 45.9546 30.1165 45.808 30.3436C45.6406 30.5707 45.5568 30.8391 45.5568 31.19V32.0984C45.5568 32.4494 45.6406 32.7178 45.808 32.9449C45.9755 33.172 46.2058 33.2752 46.499 33.2752C46.7921 33.2752 47.0014 33.1926 47.1271 33.0481C47.2736 32.9036 47.3364 32.6765 47.3364 32.3668H48.2367V32.3049ZM51.7122 31.8713H49.8069V33.1513H52.0262V33.8532H48.8857V29.332H52.0262V30.0339H49.8069V31.1694H51.7122V31.8713ZM55.5855 30.0339H53.5127V33.8532H52.5915V29.332H55.5855V30.0339ZM59.8356 34.9681H58.9981V33.8532H56.1926V34.9681H55.3552L55.2923 33.1513H55.6483C55.8158 33.0068 55.9623 32.8003 56.0879 32.4907C56.2136 32.2016 56.2764 31.7474 56.2973 31.1694L56.4229 29.3113H59.3959V33.1307H59.9403L59.8356 34.9681ZM57.1766 31.19C57.1557 31.6442 57.0929 32.0365 57.0091 32.3461C56.9254 32.6765 56.7998 32.9449 56.6532 33.1513H58.4538V30.0339H57.2604L57.1766 31.19ZM62.9552 32.8829H61.343L61.029 33.8532H60.1078L61.678 29.332H62.6202L64.1904 33.8532H63.2692L62.9552 32.8829ZM61.5733 32.1603H62.7249L62.1596 30.3849H62.1386L61.5733 32.1603ZM65.5304 32.2842H64.6091V29.332H65.5304V32.2842ZM65.5304 33.8532H64.6091V33.0687H65.5304V33.8532Z" fill="white"/>
</svg>
